<svg width="12" height="12" viewBox="0 0 12 12" fill="none" xmlns="http://www.w3.org/2000/svg">
<path d="M6.41846 0.965016C6.3598 0.847683 6.27546 0.754183 6.16546 0.684516C6.05546 0.614849 5.93446 0.580016 5.80246 0.580016C5.67046 0.580016 5.54763 0.614849 5.43396 0.684516C5.32029 0.754183 5.23413 0.847683 5.17546 0.965016L3.80046 3.81402L0.709462 4.26502C0.584795 4.27968 0.471128 4.32918 0.368462 4.41352C0.265795 4.49785 0.196128 4.60235 0.159462 4.72702C0.122795 4.85168 0.119128 4.97818 0.148462 5.10652C0.177795 5.23485 0.240128 5.34302 0.335462 5.43102L2.56846 7.65302L2.04046 10.777C2.01846 10.909 2.03313 11.0337 2.08446 11.151C2.1358 11.2683 2.2128 11.3673 2.31546 11.448C2.41813 11.5287 2.53546 11.5727 2.66746 11.58C2.79946 11.5873 2.92413 11.5617 3.04146 11.503L5.80246 10.029L8.56346 11.503C8.68079 11.5617 8.80363 11.5873 8.93196 11.58C9.0603 11.5727 9.17946 11.5305 9.28946 11.4535C9.39946 11.3765 9.4783 11.2775 9.52596 11.1565C9.57363 11.0355 9.58646 10.909 9.56446 10.777L9.02546 7.65302L11.2695 5.43102C11.3648 5.34302 11.4271 5.23485 11.4565 5.10652C11.4858 4.97818 11.4785 4.85168 11.4345 4.72702C11.3905 4.60235 11.3208 4.49785 11.2255 4.41352C11.1301 4.32918 11.0165 4.27968 10.8845 4.26502L7.80446 3.81402L6.41846 0.965016Z" fill="#D1D5DB"/>
</svg>
