<svg width="12" height="12" viewBox="0 0 12 12" fill="none" xmlns="http://www.w3.org/2000/svg">
<path d="M6.66846 0.965016C6.6098 0.847683 6.52546 0.754183 6.41546 0.684516C6.30546 0.614849 6.18446 0.580016 6.05246 0.580016C5.92046 0.580016 5.79763 0.614849 5.68396 0.684516C5.57029 0.754183 5.48413 0.847683 5.42546 0.965016L4.05046 3.81402L0.959462 4.26502C0.834795 4.27968 0.721128 4.32918 0.618462 4.41352C0.515795 4.49785 0.446128 4.60235 0.409462 4.72702C0.372795 4.85168 0.369128 4.97818 0.398462 5.10652C0.427795 5.23485 0.490128 5.34302 0.585462 5.43102L2.81846 7.65302L2.29046 10.777C2.26846 10.909 2.28313 11.0337 2.33446 11.151C2.3858 11.2683 2.4628 11.3673 2.56546 11.448C2.66813 11.5287 2.78546 11.5727 2.91746 11.58C3.04946 11.5873 3.17413 11.5617 3.29146 11.503L6.05246 10.029L8.81346 11.503C8.93079 11.5617 9.05363 11.5873 9.18196 11.58C9.31029 11.5727 9.42946 11.5305 9.53946 11.4535C9.64946 11.3765 9.72829 11.2775 9.77596 11.1565C9.82363 11.0355 9.83646 10.909 9.81446 10.777L9.27546 7.65302L11.5195 5.43102C11.6148 5.34302 11.6771 5.23485 11.7065 5.10652C11.7358 4.97818 11.7285 4.85168 11.6845 4.72702C11.6405 4.60235 11.5708 4.49785 11.4755 4.41352C11.3801 4.32918 11.2665 4.27968 11.1345 4.26502L8.05446 3.81402L6.66846 0.965016Z" fill="#FACC15"/>
</svg>
